{
    "asset" : {
        "generator" : "Khronos glTF Blender I/O v1.7.33",
        "version" : "2.0"
    },
    "scene" : 0,
    "scenes" : [
        {
            "name" : "Scene",
            "nodes" : [
                0
            ]
        }
    ],
    "nodes" : [
        {
            "mesh" : 0,
            "name" : "Cube"
        }
    ],
    "materials" : [
        {
            "doubleSided" : true,
            "name" : "Material",
            "pbrMetallicRoughness" : {
                "metallicFactor" : 0,
                "roughnessFactor" : 0.4000000059604645
            }
        }
    ],
    "meshes" : [
        {
            "name" : "Cube",
            "primitives" : [
                {
                    "attributes" : {
                        "POSITION" : 0,
                        "NORMAL" : 1,
                        "TEXCOORD_0" : 2
                    },
                    "indices" : 3,
                    "material" : 0
                }
            ]
        }
    ],
    "accessors" : [
        {
            "bufferView" : 0,
            "componentType" : 5126,
            "count" : 3351,
            "max" : [
                8.126439094543457,
                2.3440194129943848,
                9.399686813354492
            ],
            "min" : [
                -8.126439094543457,
                -2.5521206855773926,
                -5.5005645751953125
            ],
            "type" : "VEC3"
        },
        {
            "bufferView" : 1,
            "componentType" : 5126,
            "count" : 3351,
            "type" : "VEC3"
        },
        {
            "bufferView" : 2,
            "componentType" : 5126,
            "count" : 3351,
            "type" : "VEC2"
        },
        {
            "bufferView" : 3,
            "componentType" : 5123,
            "count" : 5196,
            "type" : "SCALAR"
        }
    ],
    "bufferViews" : [
        {
            "buffer" : 0,
            "byteLength" : 40212,
            "byteOffset" : 0
        },
        {
            "buffer" : 0,
            "byteLength" : 40212,
            "byteOffset" : 40212
        },
        {
            "buffer" : 0,
            "byteLength" : 26808,
            "byteOffset" : 80424
        },
        {
            "buffer" : 0,
            "byteLength" : 10392,
            "byteOffset" : 107232
        }
    ],
    "buffers" : [
        {
            "byteLength" : 117624,
            "uri" : "data:application/octet-stream;base64,"
        }
    ]
}
